<?xml version="1.0" standalone="no"?><!DOCTYPE svg PUBLIC "-//W3C//DTD SVG 1.1//EN" "http://www.w3.org/Graphics/SVG/1.1/DTD/svg11.dtd"><svg t="1741446946358" class="icon" viewBox="0 0 1024 1024" version="1.1" xmlns="http://www.w3.org/2000/svg" p-id="6004" xmlns:xlink="http://www.w3.org/1999/xlink" width="200" height="200"><path d="M817.519275 197.4272l-3.549867-3.549867C641.596075 24.9856 365.320875 26.624 196.497408 197.154133 25.557675 371.643733 25.557675 652.014933 196.292608 826.299733l3.549867 3.549867c172.373333 168.823467 448.580267 167.253333 617.540266-3.413333 170.939733-174.4896 170.871467-453.0176 0.136534-629.009067z m48.5376 676.864c-195.515733 197.563733-514.798933 199.406933-714.274134 4.096l-4.096-4.096c-196.949333-201.045333-196.949333-523.8784 0.2048-724.992 195.3792-197.4272 514.730667-199.338667 714.069334-3.959467l4.232533 4.164267c196.8128 202.9568 196.8128 523.741867-0.136533 724.7872z" fill="#2c2c2c" p-id="6005"></path><path d="M232.815275 428.2368c-16.7936 0-27.989333-11.195733-27.989334-27.989333V288.631467C204.825941 243.9168 243.942741 204.8 288.589141 204.8h111.752534c16.725333 0 27.921067 11.195733 27.921066 27.989333 0 16.725333-11.195733 27.8528-27.989333 27.8528H288.657408c-16.725333 0-27.921067 11.195733-27.921067 27.989334v111.684266c0 16.725333-11.127467 27.921067-27.921066 27.921067zM400.273408 819.2H288.589141C243.942741 819.2 204.825941 780.0832 204.825941 735.4368V623.684267c0-16.725333 11.195733-27.921067 27.989334-27.921067 16.725333 0 27.8528 11.195733 27.8528 27.989333v111.684267c0 16.725333 11.195733 27.921067 27.989333 27.921067h111.684267c16.725333 0 27.921067 11.127467 27.921066 27.921066 0 16.725333-11.195733 27.921067-27.989333 27.921067z m335.121067 0H623.710208c-16.725333 0-27.921067-11.195733-27.921067-27.989333 0-16.725333 11.195733-27.8528 27.989334-27.8528h111.684266c16.725333 0 27.921067-11.195733 27.921067-27.989334V623.752533c0-16.725333 11.127467-27.921067 27.921067-27.921066 16.725333 0 27.921067 11.195733 27.921066 27.989333v111.684267c0 44.6464-39.1168 83.7632-83.7632 83.7632z m55.842133-390.9632c-16.7936 0-27.989333-11.195733-27.989333-27.989333V288.631467c0-16.725333-11.127467-27.921067-27.8528-27.921067H623.710208c-16.725333 0-27.921067-11.127467-27.921067-27.921067 0-16.725333 11.195733-27.921067 27.989334-27.921066h111.684266C780.109141 204.8 819.225941 243.9168 819.225941 288.5632v111.752533c0 16.725333-11.195733 27.921067-27.989333 27.921067z m0 111.684267H232.747008C216.021675 539.989333 204.825941 528.725333 204.825941 512c0-16.725333 11.195733-27.989333 27.989334-27.989333h558.421333c16.7936 0 27.989333 11.264 27.989333 27.989333 0 16.725333-11.195733 27.989333-27.989333 27.989333z" fill="#2c2c2c" p-id="6006"></path></svg>